<svg width="22" height="22" viewBox="0 0 22 22" fill="none" xmlns="http://www.w3.org/2000/svg">
<path fill-rule="evenodd" clip-rule="evenodd" d="M11 4.125C11.3797 4.125 11.6875 4.4328 11.6875 4.8125V10.3125H17.1875C17.5672 10.3125 17.875 10.6203 17.875 11C17.875 11.3797 17.5672 11.6875 17.1875 11.6875H11.6875V17.1875C11.6875 17.5672 11.3797 17.875 11 17.875C10.6203 17.875 10.3125 17.5672 10.3125 17.1875V11.6875H4.8125C4.4328 11.6875 4.125 11.3797 4.125 11C4.125 10.6203 4.4328 10.3125 4.8125 10.3125H10.3125V4.8125C10.3125 4.4328 10.6203 4.125 11 4.125Z" fill="white" stroke="white" stroke-width="2" stroke-linecap="round" stroke-linejoin="round"/>
</svg>
