<svg width="31" height="31" viewBox="0 0 31 31" fill="none" xmlns="http://www.w3.org/2000/svg">
<g id="chat unclicked">
<path id="Vector" d="M23.9863 2.8327H6.17383C5.05533 2.83394 3.98299 3.27882 3.19209 4.06972C2.40119 4.86062 1.95632 5.93295 1.95508 7.05145V18.3015C1.95632 19.42 2.40119 20.4923 3.19209 21.2832C3.98299 22.0741 5.05533 22.519 6.17383 22.5202H7.58008V26.2702C7.58003 26.4485 7.6308 26.623 7.72644 26.7735C7.82208 26.9239 7.95862 27.0439 8.12006 27.1195C8.2815 27.1951 8.46114 27.2231 8.63792 27.2002C8.8147 27.1773 8.98129 27.1045 9.11816 26.9903L14.4789 22.5202H23.9863C25.1048 22.519 26.1772 22.0741 26.9681 21.2832C27.759 20.4923 28.2038 19.42 28.2051 18.3015V7.05145C28.2038 5.93295 27.759 4.86062 26.9681 4.06972C26.1772 3.27882 25.1048 2.83394 23.9863 2.8327ZM9.45508 14.5515C9.08424 14.5515 8.72173 14.4415 8.41338 14.2355C8.10504 14.0294 7.86472 13.7366 7.7228 13.394C7.58089 13.0514 7.54376 12.6744 7.61611 12.3107C7.68845 11.9469 7.86703 11.6129 8.12925 11.3506C8.39148 11.0884 8.72557 10.9098 9.08928 10.8375C9.453 10.7651 9.83 10.8023 10.1726 10.9442C10.5152 11.0861 10.8081 11.3264 11.0141 11.6348C11.2201 11.9431 11.3301 12.3056 11.3301 12.6765C11.3301 13.1737 11.1325 13.6506 10.7809 14.0023C10.4293 14.3539 9.95236 14.5515 9.45508 14.5515ZM15.0801 14.5515C14.7092 14.5515 14.3467 14.4415 14.0384 14.2355C13.73 14.0294 13.4897 13.7366 13.3478 13.394C13.2059 13.0514 13.1688 12.6744 13.2411 12.3107C13.3135 11.9469 13.492 11.6129 13.7543 11.3506C14.0165 11.0884 14.3506 10.9098 14.7143 10.8375C15.078 10.7651 15.455 10.8023 15.7976 10.9442C16.1402 11.0861 16.4331 11.3264 16.6391 11.6348C16.8451 11.9431 16.9551 12.3056 16.9551 12.6765C16.9551 13.1737 16.7575 13.6506 16.4059 14.0023C16.0543 14.3539 15.5774 14.5515 15.0801 14.5515ZM20.7051 14.5515C20.3342 14.5515 19.9717 14.4415 19.6634 14.2355C19.355 14.0294 19.1147 13.7366 18.9728 13.394C18.8309 13.0514 18.7938 12.6744 18.8661 12.3107C18.9385 11.9469 19.117 11.6129 19.3793 11.3506C19.6415 11.0884 19.9756 10.9098 20.3393 10.8375C20.703 10.7651 21.08 10.8023 21.4226 10.9442C21.7652 11.0861 22.0581 11.3264 22.2641 11.6348C22.4701 11.9431 22.5801 12.3056 22.5801 12.6765C22.5801 13.1737 22.3825 13.6506 22.0309 14.0023C21.6793 14.3539 21.2024 14.5515 20.7051 14.5515Z" fill="#1F1F1F"/>
</g>
</svg>
