<svg width="30" height="32" viewBox="0 0 30 32" fill="none" xmlns="http://www.w3.org/2000/svg">
<g id="interest">
<g id="Vector">
<path d="M15 18.7121C16.5533 18.7121 17.8125 17.3893 17.8125 15.7576C17.8125 14.1258 16.5533 12.803 15 12.803C13.4467 12.803 12.1875 14.1258 12.1875 15.7576C12.1875 17.3893 13.4467 18.7121 15 18.7121Z" fill="#F2BE22"/>
<path d="M24.375 18.7121C25.9283 18.7121 27.1875 17.3893 27.1875 15.7576C27.1875 14.1258 25.9283 12.803 24.375 12.803C22.8217 12.803 21.5625 14.1258 21.5625 15.7576C21.5625 17.3893 22.8217 18.7121 24.375 18.7121Z" fill="#F2BE22"/>
<path d="M5.625 18.7121C7.1783 18.7121 8.4375 17.3893 8.4375 15.7576C8.4375 14.1258 7.1783 12.803 5.625 12.803C4.0717 12.803 2.8125 14.1258 2.8125 15.7576C2.8125 17.3893 4.0717 18.7121 5.625 18.7121Z" fill="#F2BE22"/>
<path d="M15 18.7121C16.5533 18.7121 17.8125 17.3893 17.8125 15.7576C17.8125 14.1258 16.5533 12.803 15 12.803C13.4467 12.803 12.1875 14.1258 12.1875 15.7576C12.1875 17.3893 13.4467 18.7121 15 18.7121Z" stroke="#F2BE22" stroke-width="2"/>
<path d="M24.375 18.7121C25.9283 18.7121 27.1875 17.3893 27.1875 15.7576C27.1875 14.1258 25.9283 12.803 24.375 12.803C22.8217 12.803 21.5625 14.1258 21.5625 15.7576C21.5625 17.3893 22.8217 18.7121 24.375 18.7121Z" stroke="#F2BE22" stroke-width="2"/>
<path d="M5.625 18.7121C7.1783 18.7121 8.4375 17.3893 8.4375 15.7576C8.4375 14.1258 7.1783 12.803 5.625 12.803C4.0717 12.803 2.8125 14.1258 2.8125 15.7576C2.8125 17.3893 4.0717 18.7121 5.625 18.7121Z" stroke="#F2BE22" stroke-width="2"/>
</g>
</g>
</svg>
