<svg width="31" height="31" viewBox="0 0 31 31" fill="none" xmlns="http://www.w3.org/2000/svg">
<g id="send unclicked">
<path id="Vector" d="M27.7946 2.30715C27.6029 2.11548 27.3599 1.98331 27.0948 1.92655C26.8297 1.86979 26.5538 1.89087 26.3005 1.98723L2.8612 10.8589H2.85651C2.58626 10.9629 2.35468 11.1477 2.1934 11.3882C2.03212 11.6287 1.94901 11.9131 1.95542 12.2026C1.96183 12.492 2.05745 12.7725 2.22921 13.0056C2.40098 13.2387 2.64051 13.4131 2.91511 13.505L2.93913 13.5126L10.9841 16.948C11.141 16.9956 11.3076 17.0013 11.4674 16.9643C11.6272 16.9274 11.7745 16.8493 11.8946 16.7376L24.8063 4.70657C24.8448 4.6681 24.8905 4.63758 24.9407 4.61676C24.991 4.59593 25.0449 4.58522 25.0993 4.58522C25.1537 4.58522 25.2076 4.59593 25.2578 4.61676C25.3081 4.63758 25.3538 4.6681 25.3923 4.70657C25.4307 4.74504 25.4612 4.79072 25.4821 4.84098C25.5029 4.89125 25.5136 4.94513 25.5136 4.99954C25.5136 5.05395 25.5029 5.10782 25.4821 5.15809C25.4612 5.20836 25.4307 5.25403 25.3923 5.29251L13.3606 18.1984C13.249 18.3185 13.1708 18.4658 13.1339 18.6256C13.097 18.7853 13.1026 18.952 13.1503 19.1089L16.5868 27.1585C16.5903 27.1702 16.5938 27.1808 16.5979 27.1919C16.7854 27.7351 17.26 28.1183 17.8337 28.1441C17.8589 28.1441 17.8676 28.1441 17.8923 28.1441C18.1818 28.1457 18.4652 28.0602 18.7056 27.8987C18.9459 27.7371 19.1321 27.507 19.2399 27.2382L28.1104 3.8054C28.2082 3.55185 28.2303 3.27542 28.1743 3.00952C28.1183 2.74363 27.9864 2.49968 27.7946 2.30715Z" fill="#1F1F1F"/>
</g>
</svg>
